<mxfile host="app.diagrams.net" modified="2023-09-17T11:10:09.076Z" agent="Mozilla/5.0 (Windows NT 10.0; Win64; x64) AppleWebKit/537.36 (KHTML, like Gecko) Chrome/117.0.0.0 Safari/537.36" etag="Hc0G6XeBDSBAd231I8oG" version="21.1.4" type="device">
  <diagram name="Trang-1" id="U6gutP8l8h4kt8SwaXzx">
    <mxGraphModel dx="3350" dy="943" grid="1" gridSize="10" guides="1" tooltips="1" connect="1" arrows="1" fold="1" page="1" pageScale="1" pageWidth="1600" pageHeight="1200" math="0" shadow="0">
      <root>
        <mxCell id="0" />
        <mxCell id="1" parent="0" />
        <mxCell id="i0mEkrz7ZXVeTFf9RwDe-27" style="rounded=0;orthogonalLoop=1;jettySize=auto;html=1;" parent="1" source="i0mEkrz7ZXVeTFf9RwDe-15" target="i0mEkrz7ZXVeTFf9RwDe-19" edge="1">
          <mxGeometry relative="1" as="geometry" />
        </mxCell>
        <mxCell id="i0mEkrz7ZXVeTFf9RwDe-46" style="rounded=0;orthogonalLoop=1;jettySize=auto;html=1;" parent="1" source="i0mEkrz7ZXVeTFf9RwDe-15" target="i0mEkrz7ZXVeTFf9RwDe-35" edge="1">
          <mxGeometry relative="1" as="geometry" />
        </mxCell>
        <mxCell id="i0mEkrz7ZXVeTFf9RwDe-48" style="rounded=0;orthogonalLoop=1;jettySize=auto;html=1;entryX=0;entryY=0.5;entryDx=0;entryDy=0;" parent="1" source="i0mEkrz7ZXVeTFf9RwDe-15" target="i0mEkrz7ZXVeTFf9RwDe-47" edge="1">
          <mxGeometry relative="1" as="geometry" />
        </mxCell>
        <mxCell id="i0mEkrz7ZXVeTFf9RwDe-50" style="rounded=0;orthogonalLoop=1;jettySize=auto;html=1;entryX=0;entryY=0.5;entryDx=0;entryDy=0;" parent="1" source="i0mEkrz7ZXVeTFf9RwDe-15" target="i0mEkrz7ZXVeTFf9RwDe-49" edge="1">
          <mxGeometry relative="1" as="geometry" />
        </mxCell>
        <mxCell id="i0mEkrz7ZXVeTFf9RwDe-52" style="rounded=0;orthogonalLoop=1;jettySize=auto;html=1;entryX=0;entryY=0.5;entryDx=0;entryDy=0;" parent="1" source="i0mEkrz7ZXVeTFf9RwDe-15" target="i0mEkrz7ZXVeTFf9RwDe-51" edge="1">
          <mxGeometry relative="1" as="geometry" />
        </mxCell>
        <mxCell id="i_uUsqKOcxH4aolCPdBy-3" style="rounded=0;orthogonalLoop=1;jettySize=auto;html=1;entryX=0;entryY=0.5;entryDx=0;entryDy=0;" edge="1" parent="1" source="i0mEkrz7ZXVeTFf9RwDe-15" target="i_uUsqKOcxH4aolCPdBy-1">
          <mxGeometry relative="1" as="geometry" />
        </mxCell>
        <mxCell id="i_uUsqKOcxH4aolCPdBy-4" style="rounded=0;orthogonalLoop=1;jettySize=auto;html=1;entryX=0;entryY=0.5;entryDx=0;entryDy=0;" edge="1" parent="1" source="i0mEkrz7ZXVeTFf9RwDe-15" target="i_uUsqKOcxH4aolCPdBy-2">
          <mxGeometry relative="1" as="geometry" />
        </mxCell>
        <mxCell id="i_uUsqKOcxH4aolCPdBy-6" style="rounded=0;orthogonalLoop=1;jettySize=auto;html=1;entryX=0;entryY=0.5;entryDx=0;entryDy=0;" edge="1" parent="1" source="i0mEkrz7ZXVeTFf9RwDe-15" target="i_uUsqKOcxH4aolCPdBy-5">
          <mxGeometry relative="1" as="geometry" />
        </mxCell>
        <mxCell id="i_uUsqKOcxH4aolCPdBy-9" style="rounded=0;orthogonalLoop=1;jettySize=auto;html=1;entryX=0;entryY=0.5;entryDx=0;entryDy=0;" edge="1" parent="1" source="i0mEkrz7ZXVeTFf9RwDe-15" target="i_uUsqKOcxH4aolCPdBy-8">
          <mxGeometry relative="1" as="geometry" />
        </mxCell>
        <mxCell id="i_uUsqKOcxH4aolCPdBy-11" style="rounded=0;orthogonalLoop=1;jettySize=auto;html=1;entryX=0;entryY=0.5;entryDx=0;entryDy=0;" edge="1" parent="1" source="i0mEkrz7ZXVeTFf9RwDe-15" target="i_uUsqKOcxH4aolCPdBy-10">
          <mxGeometry relative="1" as="geometry" />
        </mxCell>
        <mxCell id="i_uUsqKOcxH4aolCPdBy-14" style="rounded=0;orthogonalLoop=1;jettySize=auto;html=1;entryX=0;entryY=0.5;entryDx=0;entryDy=0;" edge="1" parent="1" source="i0mEkrz7ZXVeTFf9RwDe-15" target="i_uUsqKOcxH4aolCPdBy-13">
          <mxGeometry relative="1" as="geometry" />
        </mxCell>
        <mxCell id="i0mEkrz7ZXVeTFf9RwDe-15" value="User" style="shape=umlActor;verticalLabelPosition=bottom;verticalAlign=top;html=1;outlineConnect=0;" parent="1" vertex="1">
          <mxGeometry x="-110" y="410" width="30" height="60" as="geometry" />
        </mxCell>
        <mxCell id="i0mEkrz7ZXVeTFf9RwDe-16" value="" style="swimlane;startSize=0;" parent="1" vertex="1">
          <mxGeometry x="380" y="140" width="770" height="1040" as="geometry" />
        </mxCell>
        <mxCell id="i0mEkrz7ZXVeTFf9RwDe-22" style="edgeStyle=orthogonalEdgeStyle;rounded=0;orthogonalLoop=1;jettySize=auto;html=1;entryX=0;entryY=0.5;entryDx=0;entryDy=0;dashed=1;endArrow=open;endFill=0;dashPattern=12 12;" parent="i0mEkrz7ZXVeTFf9RwDe-16" source="i0mEkrz7ZXVeTFf9RwDe-19" target="i0mEkrz7ZXVeTFf9RwDe-21" edge="1">
          <mxGeometry relative="1" as="geometry" />
        </mxCell>
        <mxCell id="i0mEkrz7ZXVeTFf9RwDe-19" value="Login&lt;br&gt;" style="ellipse;whiteSpace=wrap;html=1;" parent="i0mEkrz7ZXVeTFf9RwDe-16" vertex="1">
          <mxGeometry x="50" y="20" width="100" height="40" as="geometry" />
        </mxCell>
        <mxCell id="i0mEkrz7ZXVeTFf9RwDe-21" value="Check" style="ellipse;whiteSpace=wrap;html=1;" parent="i0mEkrz7ZXVeTFf9RwDe-16" vertex="1">
          <mxGeometry x="210" y="20" width="100" height="40" as="geometry" />
        </mxCell>
        <mxCell id="i0mEkrz7ZXVeTFf9RwDe-25" style="rounded=0;orthogonalLoop=1;jettySize=auto;html=1;entryX=0.5;entryY=1;entryDx=0;entryDy=0;endArrow=open;endFill=0;dashed=1;dashPattern=12 12;" parent="i0mEkrz7ZXVeTFf9RwDe-16" source="i0mEkrz7ZXVeTFf9RwDe-24" target="i0mEkrz7ZXVeTFf9RwDe-19" edge="1">
          <mxGeometry relative="1" as="geometry" />
        </mxCell>
        <mxCell id="i0mEkrz7ZXVeTFf9RwDe-24" value="Show error" style="ellipse;whiteSpace=wrap;html=1;" parent="i0mEkrz7ZXVeTFf9RwDe-16" vertex="1">
          <mxGeometry x="210" y="70" width="100" height="40" as="geometry" />
        </mxCell>
        <mxCell id="i0mEkrz7ZXVeTFf9RwDe-35" value="See Book Display&amp;nbsp;" style="ellipse;whiteSpace=wrap;html=1;" parent="i0mEkrz7ZXVeTFf9RwDe-16" vertex="1">
          <mxGeometry x="50" y="110" width="100" height="40" as="geometry" />
        </mxCell>
        <mxCell id="i0mEkrz7ZXVeTFf9RwDe-45" style="edgeStyle=orthogonalEdgeStyle;rounded=0;orthogonalLoop=1;jettySize=auto;html=1;entryX=0.5;entryY=1;entryDx=0;entryDy=0;endArrow=block;endFill=0;" parent="i0mEkrz7ZXVeTFf9RwDe-16" source="i0mEkrz7ZXVeTFf9RwDe-38" target="i0mEkrz7ZXVeTFf9RwDe-35" edge="1">
          <mxGeometry relative="1" as="geometry" />
        </mxCell>
        <mxCell id="i0mEkrz7ZXVeTFf9RwDe-38" value="High Rated" style="ellipse;whiteSpace=wrap;html=1;" parent="i0mEkrz7ZXVeTFf9RwDe-16" vertex="1">
          <mxGeometry x="140" y="190" width="60" height="20" as="geometry" />
        </mxCell>
        <mxCell id="i0mEkrz7ZXVeTFf9RwDe-44" style="edgeStyle=orthogonalEdgeStyle;rounded=0;orthogonalLoop=1;jettySize=auto;html=1;endArrow=block;endFill=0;" parent="i0mEkrz7ZXVeTFf9RwDe-16" source="i0mEkrz7ZXVeTFf9RwDe-37" target="i0mEkrz7ZXVeTFf9RwDe-35" edge="1">
          <mxGeometry relative="1" as="geometry" />
        </mxCell>
        <mxCell id="i0mEkrz7ZXVeTFf9RwDe-37" value="Popular" style="ellipse;whiteSpace=wrap;html=1;" parent="i0mEkrz7ZXVeTFf9RwDe-16" vertex="1">
          <mxGeometry y="190" width="60" height="20" as="geometry" />
        </mxCell>
        <mxCell id="i0mEkrz7ZXVeTFf9RwDe-43" style="edgeStyle=orthogonalEdgeStyle;rounded=0;orthogonalLoop=1;jettySize=auto;html=1;entryX=0.5;entryY=1;entryDx=0;entryDy=0;endArrow=block;endFill=0;" parent="i0mEkrz7ZXVeTFf9RwDe-16" source="i0mEkrz7ZXVeTFf9RwDe-36" target="i0mEkrz7ZXVeTFf9RwDe-35" edge="1">
          <mxGeometry relative="1" as="geometry" />
        </mxCell>
        <mxCell id="i0mEkrz7ZXVeTFf9RwDe-36" value="New" style="ellipse;whiteSpace=wrap;html=1;" parent="i0mEkrz7ZXVeTFf9RwDe-16" vertex="1">
          <mxGeometry x="70" y="190" width="60" height="20" as="geometry" />
        </mxCell>
        <mxCell id="i0mEkrz7ZXVeTFf9RwDe-23" value="&amp;lt;&amp;lt;include&amp;gt;&amp;gt;" style="text;html=1;align=center;verticalAlign=middle;resizable=0;points=[];autosize=1;strokeColor=none;fillColor=none;" parent="i0mEkrz7ZXVeTFf9RwDe-16" vertex="1">
          <mxGeometry x="130" y="10" width="90" height="30" as="geometry" />
        </mxCell>
        <mxCell id="i0mEkrz7ZXVeTFf9RwDe-47" value="Search" style="ellipse;whiteSpace=wrap;html=1;" parent="i0mEkrz7ZXVeTFf9RwDe-16" vertex="1">
          <mxGeometry x="50" y="240" width="100" height="40" as="geometry" />
        </mxCell>
        <mxCell id="i0mEkrz7ZXVeTFf9RwDe-49" value="Click Cart" style="ellipse;whiteSpace=wrap;html=1;" parent="i0mEkrz7ZXVeTFf9RwDe-16" vertex="1">
          <mxGeometry x="50" y="300" width="100" height="40" as="geometry" />
        </mxCell>
        <mxCell id="i0mEkrz7ZXVeTFf9RwDe-51" value="Click Order History" style="ellipse;whiteSpace=wrap;html=1;" parent="i0mEkrz7ZXVeTFf9RwDe-16" vertex="1">
          <mxGeometry x="50" y="360" width="100" height="40" as="geometry" />
        </mxCell>
        <mxCell id="i0mEkrz7ZXVeTFf9RwDe-26" value="&amp;lt;&amp;lt;extend&amp;gt;&amp;gt;" style="text;html=1;align=center;verticalAlign=middle;resizable=0;points=[];autosize=1;strokeColor=none;fillColor=none;" parent="i0mEkrz7ZXVeTFf9RwDe-16" vertex="1">
          <mxGeometry x="120" y="50" width="90" height="30" as="geometry" />
        </mxCell>
        <mxCell id="i_uUsqKOcxH4aolCPdBy-1" value="Click Book List" style="ellipse;whiteSpace=wrap;html=1;" vertex="1" parent="i0mEkrz7ZXVeTFf9RwDe-16">
          <mxGeometry x="60" y="420" width="100" height="40" as="geometry" />
        </mxCell>
        <mxCell id="i_uUsqKOcxH4aolCPdBy-2" value="Click&amp;nbsp; Profile" style="ellipse;whiteSpace=wrap;html=1;" vertex="1" parent="i0mEkrz7ZXVeTFf9RwDe-16">
          <mxGeometry x="60" y="490" width="100" height="40" as="geometry" />
        </mxCell>
        <mxCell id="i_uUsqKOcxH4aolCPdBy-5" value="Filter Book" style="ellipse;whiteSpace=wrap;html=1;" vertex="1" parent="i0mEkrz7ZXVeTFf9RwDe-16">
          <mxGeometry x="60" y="560" width="100" height="40" as="geometry" />
        </mxCell>
        <mxCell id="i_uUsqKOcxH4aolCPdBy-8" value="Add To Cart" style="ellipse;whiteSpace=wrap;html=1;" vertex="1" parent="i0mEkrz7ZXVeTFf9RwDe-16">
          <mxGeometry x="60" y="630" width="100" height="40" as="geometry" />
        </mxCell>
        <mxCell id="i_uUsqKOcxH4aolCPdBy-10" value="Order" style="ellipse;whiteSpace=wrap;html=1;" vertex="1" parent="i0mEkrz7ZXVeTFf9RwDe-16">
          <mxGeometry x="50" y="700" width="100" height="40" as="geometry" />
        </mxCell>
        <mxCell id="i_uUsqKOcxH4aolCPdBy-13" value="Reading" style="ellipse;whiteSpace=wrap;html=1;" vertex="1" parent="i0mEkrz7ZXVeTFf9RwDe-16">
          <mxGeometry x="50" y="770" width="100" height="40" as="geometry" />
        </mxCell>
        <mxCell id="i0mEkrz7ZXVeTFf9RwDe-17" style="edgeStyle=orthogonalEdgeStyle;rounded=0;orthogonalLoop=1;jettySize=auto;html=1;exitX=0.5;exitY=1;exitDx=0;exitDy=0;" parent="1" source="i0mEkrz7ZXVeTFf9RwDe-16" target="i0mEkrz7ZXVeTFf9RwDe-16" edge="1">
          <mxGeometry relative="1" as="geometry" />
        </mxCell>
      </root>
    </mxGraphModel>
  </diagram>
</mxfile>
